<svg width="1430" height="426" viewBox="0 0 1430 426" fill="none" xmlns="http://www.w3.org/2000/svg">
<path d="M304.2 167.3C344.4 155.1 359.5 118.4 361.5 86.8998C364.7 34.5998 332.6 0.399841 269.2 0.399841H83.2002L0.200195 424.4H162.5C263.2 424.4 333.2 370 340.4 272.9C343.6 228.3 332.3 193.3 304.2 167.3ZM262 270.5C256.2 326 211.7 358.1 154.4 358.1H121.7C103.2 358.1 93.9002 347.4 96.8002 332.1L118.8 218.2C122.8 197.1 139.3 185.2 158.4 185.2H172.6C231.9 185.2 267.5 217.6 262 270.5ZM282.2 92.6998C280.5 108.6 268.6 118.7 249.5 118.7H170.8C151.7 118.7 141 108.6 143 92.6998C144.7 76.7998 157.2 66.6998 176 66.6998H255C273.8 66.5998 284 76.6998 282.2 92.6998ZM439.8 0.399841H715.8L702.8 67.0998H532.1C513.9 67.0998 502 76.5998 500.3 92.5998C499.1 109.1 509 119.2 527.5 119.2H692.7L679.7 188.6H514.5C494.3 188.6 479.5 198.2 475.4 218.1L454.6 326C450.6 346.2 460.4 358.7 480.6 358.7H645.8L631.6 425.6H355.6L439.8 0.399841ZM1429.9 0.399841L1206.5 425.6H1124L1159 359.3C1170 338.4 1159.6 318.7 1137.6 318.7H1124L1080.7 9.09979L889.7 425.6H760.6L730.2 0.499817H810.9L829.4 351.3C829.7 355.1 830.8 359.1 835.8 359.1C841 359.1 843.3 355 844.8 351.3L999.4 0.299805H1159L1191.4 245.6C1192.3 252.8 1195.2 256.9 1200.4 256.9C1205.9 256.9 1209.1 252.6 1212.8 245.6L1344.5 0.299805L1429.9 0.399841Z" fill="#69C0B0"/>
</svg>
