<svg width="1512" height="610" viewBox="0 0 1512 610" fill="none" xmlns="http://www.w3.org/2000/svg">
<g opacity="0.3">
<mask id="mask0_298_3578" style="mask-type:luminance" maskUnits="userSpaceOnUse" x="0" y="0" width="1512" height="610">
<path d="M1512 0H0V610H1512V0Z" fill="white"/>
</mask>
<g mask="url(#mask0_298_3578)">
<path d="M1626.59 689.962H-114.594V-79.9614H1626.59L1626.59 689.962ZM-112.343 688.373H1624.34V-78.3729H-112.343V688.373Z" fill="black" fill-opacity="0.22"/>
<path d="M1625.46 573.122H-113.473V574.711H1625.46V573.122Z" fill="black" fill-opacity="0.22"/>
<path d="M1625.46 534.705H-113.473V536.294H1625.46V534.705Z" fill="black" fill-opacity="0.22"/>
<path d="M1625.46 496.289H-113.473V497.878H1625.46V496.289Z" fill="black" fill-opacity="0.22"/>
<path d="M1625.46 457.872H-113.473V459.461H1625.46V457.872Z" fill="black" fill-opacity="0.22"/>
<path d="M1625.46 419.455H-113.473V421.044H1625.46V419.455Z" fill="black" fill-opacity="0.22"/>
<path d="M1625.46 381.039H-113.473V382.628H1625.46V381.039Z" fill="black" fill-opacity="0.22"/>
<path d="M1625.46 342.622H-113.473V344.211H1625.46V342.622Z" fill="black" fill-opacity="0.22"/>
<path d="M1625.46 304.206H-113.473V305.794H1625.46V304.206Z" fill="black" fill-opacity="0.22"/>
<path d="M1625.46 265.789H-113.473V267.378H1625.46V265.789Z" fill="black" fill-opacity="0.22"/>
<path d="M1625.46 227.372H-113.473V228.96H1625.46V227.372Z" fill="black" fill-opacity="0.22"/>
<path d="M1625.46 188.955H-113.473V190.544H1625.46V188.955Z" fill="black" fill-opacity="0.22"/>
<path d="M1625.46 150.538H-113.473V152.127H1625.46V150.538Z" fill="black" fill-opacity="0.22"/>
<path d="M1625.46 112.122H-113.473V113.71H1625.46V112.122Z" fill="black" fill-opacity="0.22"/>
<path d="M1625.46 73.7048H-113.473V75.2934H1625.46V73.7048Z" fill="black" fill-opacity="0.22"/>
<path d="M1625.46 35.2883H-113.473V36.8769H1625.46V35.2883Z" fill="black" fill-opacity="0.22"/>
<path d="M1468.51 -79.1674H1466.26V689.167H1468.51V-79.1674Z" fill="black" fill-opacity="0.22"/>
<path d="M1415.81 -79.1672H1413.56V689.167H1415.81V-79.1672Z" fill="black" fill-opacity="0.22"/>
<path d="M1363.11 -79.1672H1360.86V689.167H1363.11V-79.1672Z" fill="black" fill-opacity="0.22"/>
<path d="M1310.43 -79.1674H1308.18V689.167H1310.43V-79.1674Z" fill="black" fill-opacity="0.22"/>
<path d="M1257.72 -79.1674H1255.47V689.167H1257.72V-79.1674Z" fill="black" fill-opacity="0.22"/>
<path d="M1205.03 -79.1674H1202.78V689.167H1205.03V-79.1674Z" fill="black" fill-opacity="0.22"/>
<path d="M1152.34 -79.1674H1150.09V689.167H1152.34V-79.1674Z" fill="black" fill-opacity="0.22"/>
<path d="M1099.64 -79.1672H1097.39V689.167H1099.64V-79.1672Z" fill="black" fill-opacity="0.22"/>
<path d="M1046.95 -79.1674H1044.7V689.167H1046.95V-79.1674Z" fill="black" fill-opacity="0.22"/>
<path d="M994.252 -79.1672H992.002V689.167H994.252V-79.1672Z" fill="black" fill-opacity="0.22"/>
<path d="M941.557 -79.1674H939.307V689.167H941.557V-79.1674Z" fill="black" fill-opacity="0.22"/>
<path d="M888.859 -79.1674H886.609V689.167H888.859V-79.1674Z" fill="black" fill-opacity="0.22"/>
<path d="M836.168 -79.1672H833.918V689.167H836.168V-79.1672Z" fill="black" fill-opacity="0.22"/>
<path d="M783.471 -79.1674H781.221V689.167H783.471V-79.1674Z" fill="black" fill-opacity="0.22"/>
<path d="M730.775 -79.1674H728.525V689.167H730.775V-79.1674Z" fill="black" fill-opacity="0.22"/>
<path d="M678.084 -79.1672H675.834V689.167H678.084V-79.1672Z" fill="black" fill-opacity="0.22"/>
<path d="M625.389 -79.1674H623.139V689.167H625.389V-79.1674Z" fill="black" fill-opacity="0.22"/>
<path d="M572.691 -79.1674H570.441V689.167H572.691V-79.1674Z" fill="black" fill-opacity="0.22"/>
<path d="M519.996 -79.1674H517.746V689.167H519.996V-79.1674Z" fill="black" fill-opacity="0.22"/>
<path d="M467.303 -79.1674H465.053V689.167H467.303V-79.1674Z" fill="black" fill-opacity="0.22"/>
<path d="M414.607 -79.1674H412.357V689.167H414.607V-79.1674Z" fill="black" fill-opacity="0.22"/>
<path d="M361.91 -79.1674H359.66V689.167H361.91V-79.1674Z" fill="black" fill-opacity="0.22"/>
<path d="M309.217 -79.1672H306.967V689.167H309.217V-79.1672Z" fill="black" fill-opacity="0.22"/>
<path d="M256.523 -79.1674H254.273V689.167H256.523V-79.1674Z" fill="black" fill-opacity="0.22"/>
<path d="M203.828 -79.1674H201.578V689.167H203.828V-79.1674Z" fill="black" fill-opacity="0.22"/>
<path d="M151.133 -79.1672H148.883V689.167H151.133V-79.1672Z" fill="black" fill-opacity="0.22"/>
<path d="M98.4395 -79.1674H96.1895V689.167H98.4395V-79.1674Z" fill="black" fill-opacity="0.22"/>
<path d="M45.7422 -79.1674H43.4922V689.167H45.7422V-79.1674Z" fill="black" fill-opacity="0.22"/>
</g>
</g>
</svg>
