<svg xmlns="http://www.w3.org/2000/svg" viewBox="0 0 260.23 35.27">
  <defs>
    <style>.cls-1{fill:#653b6b;}.cls-2{fill:#e7195e;}</style>
  </defs>
  <g id="Warstwa_2" data-name="Warstwa 2">
    <g id="Layer_1" data-name="Layer 1">
      <path class="cls-1" d="M16.08,6.09a11.63,11.63,0,0,1,3.82.68,41.06,41.06,0,0,1,3.87,1.6l2.34-5.91a23,23,0,0,0-10-2.41A16.48,16.48,0,0,0,7.54,2.19,14,14,0,0,0,2,8.36,21.21,21.21,0,0,0,0,17.72c0,5.66,1.32,10,4,13s6.45,4.53,11.44,4.53a24.29,24.29,0,0,0,9.42-1.75v-6.1a27.31,27.31,0,0,1-8.74,1.81q-8.61,0-8.6-11.46,0-5.52,2.25-8.59A7.39,7.39,0,0,1,16.08,6.09Z"/>
      <path class="cls-1" d="M44.07,0Q36.16,0,31.94,4.51T27.71,17.58q0,8.55,4.21,13.12T44,35.27q7.88,0,12.09-4.57t4.22-13.08q0-8.52-4.18-13.07T44.07,0Zm0,29.18a7.64,7.64,0,0,1-6.52-2.91c-1.45-1.93-2.18-4.82-2.18-8.65s.74-6.71,2.21-8.66a7.68,7.68,0,0,1,6.54-2.91q8.64,0,8.64,11.57T44,29.18Z"/>
      <polygon class="cls-1" points="83.24 0.54 61.2 0.54 61.2 6.59 70.51 6.59 70.51 34.8 77.77 34.8 77.77 6.59 83.24 6.59 87.08 6.59 92.54 6.59 92.54 34.8 99.81 34.8 99.81 6.59 109.11 6.59 109.11 0.54 87.08 0.54 83.24 0.54"/>
      <path class="cls-1" d="M126.34,0q-7.89,0-12.13,4.51T110,17.58q0,8.55,4.22,13.12t12.1,4.57q7.88,0,12.09-4.57t4.22-13.08q0-8.52-4.19-13.07T126.34,0Zm0,29.18a7.62,7.62,0,0,1-6.52-2.91c-1.45-1.93-2.18-4.82-2.18-8.65s.73-6.71,2.2-8.66a7.69,7.69,0,0,1,6.54-2.91q8.66,0,8.65,11.57T126.3,29.18Z"/>
      <path class="cls-1" d="M170.69.54V16.76q0,2.76.35,9.44h-.16L156,.54h-9.16V34.8h6.49V18.68q0-2.92-.44-9.8h.21L168,34.8h9.24V.54Z"/>
      <path class="cls-2" d="M211,19.66a7.52,7.52,0,0,0-4.72-2.73v-.24a5.78,5.78,0,0,0,3.85-2.38,8.31,8.31,0,0,0,1.45-5.06q0-4.54-3.31-6.63T197.65.54H185.3v6h12.78a9.3,9.3,0,0,1,4.57.86,3,3,0,0,1,1.45,2.84,3.4,3.4,0,0,1-1.33,3,7.74,7.74,0,0,1-4.29.92H185.3V20h13.46q6.12,0,6.12,4.29a4.26,4.26,0,0,1-1.44,3.53A7,7,0,0,1,199,28.93H185.3v6h14.52q5.84,0,9.24-2.64a8.75,8.75,0,0,0,3.4-7.34A8.83,8.83,0,0,0,211,19.66Z"/>
      <rect class="cls-2" x="215.9" y="0.54" width="19.33" height="6.42"/>
      <rect class="cls-2" x="215.9" y="28.54" width="19.33" height="6.42"/>
      <rect class="cls-2" x="215.9" y="14.06" width="18.4" height="6.42"/>
      <rect class="cls-2" x="240.9" y="0.54" width="19.33" height="6.42"/>
      <rect class="cls-2" x="240.9" y="28.54" width="19.33" height="6.42"/>
      <rect class="cls-2" x="240.9" y="14.06" width="18.4" height="6.42"/>
    </g>
  </g>
</svg>