<svg xmlns="http://www.w3.org/2000/svg" viewBox="0 0 76.41 41.48"><defs><style>.cls-1{fill:#271800;}.cls-2{fill:#fff;}</style></defs><g id="Warstwa_2" data-name="Warstwa 2"><g id="Warstwa_1-2" data-name="Warstwa 1"><path class="cls-1" d="M28.94,28.06q-.17-.42-.48-.42a.86.86,0,0,0-.34.09l.54,2.9a.53.53,0,0,0,.36.11.79.79,0,0,0,.42-.1C29.19,29.19,29,28.32,28.94,28.06ZM29.3,7.84c-.08-.36-.24-.54-.47-.54a.58.58,0,0,0-.39.15q0,.25.09.69a18.11,18.11,0,0,1,0,1.84v.93c0,.65,0,1.12,0,1.42s-.05.55-.07.76l0,.35a.62.62,0,0,0,.39.14c.23,0,.39-.18.47-.54a9.63,9.63,0,0,0,.13-2V9.82A9.68,9.68,0,0,0,29.3,7.84Zm-.36,20.22q-.17-.42-.48-.42a.86.86,0,0,0-.34.09l.54,2.9a.53.53,0,0,0,.36.11.79.79,0,0,0,.42-.1C29.19,29.19,29,28.32,28.94,28.06ZM29.3,7.84c-.08-.36-.24-.54-.47-.54a.58.58,0,0,0-.39.15q0,.25.09.69a18.11,18.11,0,0,1,0,1.84v.93c0,.65,0,1.12,0,1.42s-.05.55-.07.76l0,.35a.62.62,0,0,0,.39.14c.23,0,.39-.18.47-.54a9.63,9.63,0,0,0,.13-2V9.82A9.68,9.68,0,0,0,29.3,7.84Zm-.36,20.22q-.17-.42-.48-.42a.86.86,0,0,0-.34.09l.54,2.9a.53.53,0,0,0,.36.11.79.79,0,0,0,.42-.1C29.19,29.19,29,28.32,28.94,28.06ZM29.3,7.84c-.08-.36-.24-.54-.47-.54a.58.58,0,0,0-.39.15q0,.25.09.69a18.11,18.11,0,0,1,0,1.84v.93c0,.65,0,1.12,0,1.42s-.05.55-.07.76l0,.35a.62.62,0,0,0,.39.14c.23,0,.39-.18.47-.54a9.63,9.63,0,0,0,.13-2V9.82A9.68,9.68,0,0,0,29.3,7.84Zm-.36,20.22q-.17-.42-.48-.42a.86.86,0,0,0-.34.09l.54,2.9a.53.53,0,0,0,.36.11.79.79,0,0,0,.42-.1C29.19,29.19,29,28.32,28.94,28.06ZM29.3,7.84c-.08-.36-.24-.54-.47-.54a.58.58,0,0,0-.39.15q0,.25.09.69a18.11,18.11,0,0,1,0,1.84v.93c0,.65,0,1.12,0,1.42s-.05.55-.07.76l0,.35a.62.62,0,0,0,.39.14c.23,0,.39-.18.47-.54a9.63,9.63,0,0,0,.13-2V9.82A9.68,9.68,0,0,0,29.3,7.84Zm-.36,20.22q-.17-.42-.48-.42a.86.86,0,0,0-.34.09l.54,2.9a.53.53,0,0,0,.36.11.79.79,0,0,0,.42-.1C29.19,29.19,29,28.32,28.94,28.06ZM29.3,7.84c-.08-.36-.24-.54-.47-.54a.58.58,0,0,0-.39.15q0,.25.09.69a18.11,18.11,0,0,1,0,1.84v.93c0,.65,0,1.12,0,1.42s-.05.55-.07.76l0,.35a.62.62,0,0,0,.39.14c.23,0,.39-.18.47-.54a9.63,9.63,0,0,0,.13-2V9.82A9.68,9.68,0,0,0,29.3,7.84Zm-.36,20.22q-.17-.42-.48-.42a.86.86,0,0,0-.34.09l.54,2.9a.53.53,0,0,0,.36.11.79.79,0,0,0,.42-.1C29.19,29.19,29,28.32,28.94,28.06ZM29.3,7.84c-.08-.36-.24-.54-.47-.54a.58.58,0,0,0-.39.15q0,.25.09.69a18.11,18.11,0,0,1,0,1.84v.93c0,.65,0,1.12,0,1.42s-.05.55-.07.76l0,.35a.62.62,0,0,0,.39.14c.23,0,.39-.18.47-.54a9.63,9.63,0,0,0,.13-2V9.82A9.68,9.68,0,0,0,29.3,7.84Zm-.36,20.22q-.17-.42-.48-.42a.86.86,0,0,0-.34.09l.54,2.9a.53.53,0,0,0,.36.11.79.79,0,0,0,.42-.1C29.19,29.19,29,28.32,28.94,28.06ZM29.3,7.84c-.08-.36-.24-.54-.47-.54a.58.58,0,0,0-.39.15q0,.25.09.69a18.11,18.11,0,0,1,0,1.84v.93c0,.65,0,1.12,0,1.42s-.05.55-.07.76l0,.35a.62.62,0,0,0,.39.14c.23,0,.39-.18.47-.54a9.63,9.63,0,0,0,.13-2V9.82A9.68,9.68,0,0,0,29.3,7.84Zm-.36,20.22q-.17-.42-.48-.42a.86.86,0,0,0-.34.09l.54,2.9a.53.53,0,0,0,.36.11.79.79,0,0,0,.42-.1C29.19,29.19,29,28.32,28.94,28.06ZM29.3,7.84c-.08-.36-.24-.54-.47-.54a.58.58,0,0,0-.39.15q0,.25.09.69a18.11,18.11,0,0,1,0,1.84v.93c0,.65,0,1.12,0,1.42s-.05.55-.07.76l0,.35a.62.62,0,0,0,.39.14c.23,0,.39-.18.47-.54a9.63,9.63,0,0,0,.13-2V9.82A9.68,9.68,0,0,0,29.3,7.84ZM67.49,0H8.92A8.93,8.93,0,0,0,0,8.93V32.28a9.2,9.2,0,0,0,9.2,9.2H69.62a6.79,6.79,0,0,0,6.79-6.8V8.93A8.92,8.92,0,0,0,67.49,0ZM22.26,3.08A9.22,9.22,0,0,1,28.77.74a9,9,0,0,1,6.85,2.68,9.84,9.84,0,0,1,2.52,7q0,4.86-2.7,7.42a9.22,9.22,0,0,1-6.58,2.31,10.33,10.33,0,0,1-4.69-1.06,8.15,8.15,0,0,1-3.44-3.23,10.41,10.41,0,0,1-1.31-5.44A9.62,9.62,0,0,1,22.26,3.08ZM4.4,2.35A10.49,10.49,0,0,1,10.25.81a14.72,14.72,0,0,1,4.35.55,9.17,9.17,0,0,1,2.89,1.42,6,6,0,0,1,.33,2,5.7,5.7,0,0,1-.28,1.85,3.23,3.23,0,0,1-.79,1.34A6,6,0,0,0,15,7.2a8.32,8.32,0,0,0-2.33-.37,4.68,4.68,0,0,0-1.4.13c-.23.08-.35.22-.35.4a.69.69,0,0,0,0,.25,5.18,5.18,0,0,1,1.29-.13A7.44,7.44,0,0,1,16.81,8.8a5.56,5.56,0,0,1,2.08,4.74,5.71,5.71,0,0,1-2.25,4.62,10.13,10.13,0,0,1-6.57,2,19.62,19.62,0,0,1-3.93-.34,11.9,11.9,0,0,1-3.25-1.18,5.58,5.58,0,0,1-1.08-3.18,3.55,3.55,0,0,1,1.11-2.68,3.79,3.79,0,0,1,2.72-1.07,4.76,4.76,0,0,1,2.65.67A3.83,3.83,0,0,1,9.8,14.5q.48-.09.48-.48a2,2,0,0,0-.26-.89,3,3,0,0,0-.74-.94A5,5,0,0,0,5.82,11a5.52,5.52,0,0,0-2,.36A3.7,3.7,0,0,1,2.23,9.8a4.88,4.88,0,0,1-.59-2.35A5.72,5.72,0,0,1,4.4,2.35ZM18.46,33.76v4.31A11,11,0,0,1,11,40.52a12,12,0,0,1-5-1,8.35,8.35,0,0,1-3.72-3.15A10.11,10.11,0,0,1,.79,30.8,9.37,9.37,0,0,1,3.6,23.53a10.28,10.28,0,0,1,7.24-2.46,13.21,13.21,0,0,1,4.26.68,9.42,9.42,0,0,1,3.17,1.68,13.1,13.1,0,0,1-.21,2.11,7.58,7.58,0,0,1-.52,1.91H10a5,5,0,0,0-.87,1.41A5.19,5.19,0,0,0,8.69,31a3.74,3.74,0,0,0,.82,2.57,2.29,2.29,0,0,0,1.84.85c.3,0,.46-.1.46-.32v-.33h-.16A2,2,0,0,1,10.07,33a3.22,3.22,0,0,1-.62-2.11,4,4,0,0,1,1-2.79h8.52A4.94,4.94,0,0,1,19.75,31a4.93,4.93,0,0,1-.7,2.77Zm15.27,6.56A5.88,5.88,0,0,1,31,39.73a2.29,2.29,0,0,1-1.32-1.68l-.32-1.75A4.77,4.77,0,0,0,31,36c.54-.21.8-.43.8-.66a.45.45,0,0,0-.18-.37,4.12,4.12,0,0,1-1.34.59,6.08,6.08,0,0,1-1.46.2,4.93,4.93,0,0,1-3-.79.61.61,0,0,0-.14.37c0,.28.26.51.78.7a7.33,7.33,0,0,0,1.9.35,7.86,7.86,0,0,0,.4,2.35,2.93,2.93,0,0,1-1.5,1.07,6.94,6.94,0,0,1-2.79.54A6.69,6.69,0,0,1,21,39.44a2.54,2.54,0,0,1-1.39-2.94l3.06-13.67a9.54,9.54,0,0,1,2.74-1.15,13,13,0,0,1,3.32-.42,9.86,9.86,0,0,1,4.22.83,4.11,4.11,0,0,1,2.43,2.75L38.6,38.38C37.61,39.68,36,40.32,33.73,40.32Zm5.36-37.8q0-1.32,6.48-1.32h9a6.35,6.35,0,0,1,.62,1.7,8.47,8.47,0,0,1,.2,1.69q0,3.29-2.89,3.29H47c-.36,0-.54.15-.54.46v.1c0,.06,0,.09,0,.11h6.35a5.47,5.47,0,0,1,.74,2.82,4.74,4.74,0,0,1-.88,3h-7a.36.36,0,0,0-.11.26c0,.16.11.25.35.28s.5,0,.8,0h.83v3.64a5.5,5.5,0,0,1-1.76,1,8,8,0,0,1-2.67.39,5,5,0,0,1-2.71-.71,2.4,2.4,0,0,1-1.25-2.17ZM56.17,38A1.87,1.87,0,0,1,55,39.79a6,6,0,0,1-2.69.5,7.73,7.73,0,0,1-1.81-.2,4.42,4.42,0,0,1-1.39-.51,34.67,34.67,0,0,1-2-2.93L45.61,34.2a.42.42,0,0,0-.42.45,2.45,2.45,0,0,0,.42.93l1.79,2.9v.77a6.81,6.81,0,0,1-3.75,1.07,6,6,0,0,1-3.28-.76,2.41,2.41,0,0,1-1.18-2.15V23c0-.49.4-.91,1.2-1.24a7.37,7.37,0,0,1,2.82-.49,6.46,6.46,0,0,1,1.73.22,3.42,3.42,0,0,1,1.24.57,15.58,15.58,0,0,1,1.08,1.52c.33.52,1.06,1.72,2.2,3.62a.53.53,0,0,0,.29-.1.39.39,0,0,0,.12-.31,2.06,2.06,0,0,0-.35-.81L48,23.32v-.79a5.17,5.17,0,0,1,1.79-.94,7.11,7.11,0,0,1,2.16-.33,5.78,5.78,0,0,1,3,.66,2.69,2.69,0,0,1,1.31,2.47ZM55.75,4.65a5.29,5.29,0,0,1,.38-2.08,3.69,3.69,0,0,1,.94-1.37H68.49A6.41,6.41,0,0,1,74.9,7.61a.18.18,0,0,1-.18.2l-5.53.07H66.67a.52.52,0,0,0,0,.21c0,.18.1.29.3.35a5.43,5.43,0,0,0,1.35.1h1v10.1a5.5,5.5,0,0,1-1.76,1,8.17,8.17,0,0,1-2.69.39,4.92,4.92,0,0,1-2.69-.71,2.38,2.38,0,0,1-1.25-2.15V7.88h-4.1A5.54,5.54,0,0,1,55.75,4.65ZM75.58,33.94c-.07,1.81-.32,4.77-4.12,6a14,14,0,0,1-4.19.61,12,12,0,0,1-5-1,8.35,8.35,0,0,1-3.72-3.15,10.11,10.11,0,0,1-1.45-5.57,9.34,9.34,0,0,1,2.82-7.27,10.26,10.26,0,0,1,7.24-2.46,13.19,13.19,0,0,1,4.25.68,9.32,9.32,0,0,1,3.17,1.68,13.1,13.1,0,0,1-.21,2.11,7.17,7.17,0,0,1-.52,1.91H66.25a5,5,0,0,0-.87,1.41A5.19,5.19,0,0,0,65,31a3.74,3.74,0,0,0,.82,2.57,2.29,2.29,0,0,0,1.84.85c.3,0,.46-.1.46-.32v-.33h-.16A1.94,1.94,0,0,1,66.36,33a3.16,3.16,0,0,1-.63-2.11,4,4,0,0,1,1-2.79h8.89C75.58,29.12,75.62,32.48,75.58,33.94Zm-47-21.61c0,.3-.05.55-.07.76l0,.35a.62.62,0,0,0,.39.14c.23,0,.39-.18.47-.54a9.63,9.63,0,0,0,.13-2V9.82a9.68,9.68,0,0,0-.13-2c-.08-.36-.24-.54-.47-.54a.58.58,0,0,0-.39.15q0,.25.09.69a18.11,18.11,0,0,1,0,1.84v.93C28.58,11.56,28.57,12,28.54,12.33Zm-.08,15.31a.86.86,0,0,0-.34.09l.54,2.9a.53.53,0,0,0,.36.11.79.79,0,0,0,.42-.1c-.25-1.45-.42-2.32-.5-2.58S28.67,27.64,28.46,27.64Zm.84-19.8c-.08-.36-.24-.54-.47-.54a.58.58,0,0,0-.39.15q0,.25.09.69a18.11,18.11,0,0,1,0,1.84v.93c0,.65,0,1.12,0,1.42s-.05.55-.07.76l0,.35a.62.62,0,0,0,.39.14c.23,0,.39-.18.47-.54a9.63,9.63,0,0,0,.13-2V9.82A9.68,9.68,0,0,0,29.3,7.84Zm-.36,20.22q-.17-.42-.48-.42a.86.86,0,0,0-.34.09l.54,2.9a.53.53,0,0,0,.36.11.79.79,0,0,0,.42-.1C29.19,29.19,29,28.32,28.94,28.06ZM29.3,7.84c-.08-.36-.24-.54-.47-.54a.58.58,0,0,0-.39.15q0,.25.09.69a18.11,18.11,0,0,1,0,1.84v.93c0,.65,0,1.12,0,1.42s-.05.55-.07.76l0,.35a.62.62,0,0,0,.39.14c.23,0,.39-.18.47-.54a9.63,9.63,0,0,0,.13-2V9.82A9.68,9.68,0,0,0,29.3,7.84Zm-.36,20.22q-.17-.42-.48-.42a.86.86,0,0,0-.34.09l.54,2.9a.53.53,0,0,0,.36.11.79.79,0,0,0,.42-.1C29.19,29.19,29,28.32,28.94,28.06ZM29.3,7.84c-.08-.36-.24-.54-.47-.54a.58.58,0,0,0-.39.15q0,.25.09.69a18.11,18.11,0,0,1,0,1.84v.93c0,.65,0,1.12,0,1.42s-.05.55-.07.76l0,.35a.62.62,0,0,0,.39.14c.23,0,.39-.18.47-.54a9.63,9.63,0,0,0,.13-2V9.82A9.68,9.68,0,0,0,29.3,7.84Zm-.36,20.22q-.17-.42-.48-.42a.86.86,0,0,0-.34.09l.54,2.9a.53.53,0,0,0,.36.11.79.79,0,0,0,.42-.1C29.19,29.19,29,28.32,28.94,28.06ZM29.3,7.84c-.08-.36-.24-.54-.47-.54a.58.58,0,0,0-.39.15q0,.25.09.69a18.11,18.11,0,0,1,0,1.84v.93c0,.65,0,1.12,0,1.42s-.05.55-.07.76l0,.35a.62.62,0,0,0,.39.14c.23,0,.39-.18.47-.54a9.63,9.63,0,0,0,.13-2V9.82A9.68,9.68,0,0,0,29.3,7.84Zm-.36,20.22q-.17-.42-.48-.42a.86.86,0,0,0-.34.09l.54,2.9a.53.53,0,0,0,.36.11.79.79,0,0,0,.42-.1C29.19,29.19,29,28.32,28.94,28.06ZM29.3,7.84c-.08-.36-.24-.54-.47-.54a.58.58,0,0,0-.39.15q0,.25.09.69a18.11,18.11,0,0,1,0,1.84v.93c0,.65,0,1.12,0,1.42s-.05.55-.07.76l0,.35a.62.62,0,0,0,.39.14c.23,0,.39-.18.47-.54a9.63,9.63,0,0,0,.13-2V9.82A9.68,9.68,0,0,0,29.3,7.84Zm-.36,20.22q-.17-.42-.48-.42a.86.86,0,0,0-.34.09l.54,2.9a.53.53,0,0,0,.36.11.79.79,0,0,0,.42-.1C29.19,29.19,29,28.32,28.94,28.06ZM29.3,7.84c-.08-.36-.24-.54-.47-.54a.58.58,0,0,0-.39.15q0,.25.09.69a18.11,18.11,0,0,1,0,1.84v.93c0,.65,0,1.12,0,1.42s-.05.55-.07.76l0,.35a.62.62,0,0,0,.39.14c.23,0,.39-.18.47-.54a9.63,9.63,0,0,0,.13-2V9.82A9.68,9.68,0,0,0,29.3,7.84Zm-.36,20.22q-.17-.42-.48-.42a.86.86,0,0,0-.34.09l.54,2.9a.53.53,0,0,0,.36.11.79.79,0,0,0,.42-.1C29.19,29.19,29,28.32,28.94,28.06ZM29.3,7.84c-.08-.36-.24-.54-.47-.54a.58.58,0,0,0-.39.15q0,.25.09.69a18.11,18.11,0,0,1,0,1.84v.93c0,.65,0,1.12,0,1.42s-.05.55-.07.76l0,.35a.62.62,0,0,0,.39.14c.23,0,.39-.18.47-.54a9.63,9.63,0,0,0,.13-2V9.82A9.68,9.68,0,0,0,29.3,7.84Zm-.36,20.22q-.17-.42-.48-.42a.86.86,0,0,0-.34.09l.54,2.9a.53.53,0,0,0,.36.11.79.79,0,0,0,.42-.1C29.19,29.19,29,28.32,28.94,28.06Zm0,0q-.17-.42-.48-.42a.86.86,0,0,0-.34.09l.54,2.9a.53.53,0,0,0,.36.11.79.79,0,0,0,.42-.1C29.19,29.19,29,28.32,28.94,28.06ZM29.3,7.84c-.08-.36-.24-.54-.47-.54a.58.58,0,0,0-.39.15q0,.25.09.69a18.11,18.11,0,0,1,0,1.84v.93c0,.65,0,1.12,0,1.42s-.05.55-.07.76l0,.35a.62.62,0,0,0,.39.14c.23,0,.39-.18.47-.54a9.63,9.63,0,0,0,.13-2V9.82A9.68,9.68,0,0,0,29.3,7.84Z"/><path class="cls-2" d="M19.75,31a4.93,4.93,0,0,1-.7,2.77h-.59v4.31A11,11,0,0,1,11,40.52a12,12,0,0,1-5-1,8.35,8.35,0,0,1-3.72-3.15A10.11,10.11,0,0,1,.79,30.8,9.37,9.37,0,0,1,3.6,23.53a10.28,10.28,0,0,1,7.24-2.46,13.21,13.21,0,0,1,4.26.68,9.42,9.42,0,0,1,3.17,1.68,13.1,13.1,0,0,1-.21,2.11,7.58,7.58,0,0,1-.52,1.91H10a5,5,0,0,0-.87,1.41A5.19,5.19,0,0,0,8.69,31a3.74,3.74,0,0,0,.82,2.57,2.29,2.29,0,0,0,1.84.85c.3,0,.46-.1.46-.32v-.33h-.16A2,2,0,0,1,10.07,33a3.22,3.22,0,0,1-.62-2.11,4,4,0,0,1,1-2.79h8.52A4.94,4.94,0,0,1,19.75,31Z"/><path class="cls-2" d="M35.33,24.84a4.11,4.11,0,0,0-2.43-2.75,9.86,9.86,0,0,0-4.22-.83,13,13,0,0,0-3.32.42,9.54,9.54,0,0,0-2.74,1.15L19.56,36.5A2.54,2.54,0,0,0,21,39.44a6.69,6.69,0,0,0,3.52.88,6.94,6.94,0,0,0,2.79-.54,2.93,2.93,0,0,0,1.5-1.07,7.86,7.86,0,0,1-.4-2.35,7.33,7.33,0,0,1-1.9-.35c-.52-.19-.78-.42-.78-.7a.61.61,0,0,1,.14-.37,4.93,4.93,0,0,0,3,.79,6.08,6.08,0,0,0,1.46-.2,4.12,4.12,0,0,0,1.34-.59.45.45,0,0,1,.18.37c0,.23-.26.45-.8.66a4.77,4.77,0,0,1-1.67.33l.32,1.75A2.29,2.29,0,0,0,31,39.73a5.88,5.88,0,0,0,2.77.59c2.25,0,3.88-.64,4.87-1.94ZM29,30.74a.53.53,0,0,1-.36-.11l-.54-2.9a.86.86,0,0,1,.34-.09q.32,0,.48.42c.08.26.25,1.13.5,2.58A.79.79,0,0,1,29,30.74Z"/><path class="cls-2" d="M56.17,24.39V38A1.87,1.87,0,0,1,55,39.79a6,6,0,0,1-2.69.5,7.73,7.73,0,0,1-1.81-.2,4.42,4.42,0,0,1-1.39-.51,34.67,34.67,0,0,1-2-2.93L45.61,34.2a.42.42,0,0,0-.42.45,2.45,2.45,0,0,0,.42.93l1.79,2.9v.77a6.81,6.81,0,0,1-3.75,1.07,6,6,0,0,1-3.28-.76,2.41,2.41,0,0,1-1.18-2.15V23c0-.49.4-.91,1.2-1.24a7.37,7.37,0,0,1,2.82-.49,6.46,6.46,0,0,1,1.73.22,3.42,3.42,0,0,1,1.24.57,15.58,15.58,0,0,1,1.08,1.52c.33.52,1.06,1.72,2.2,3.62a.53.53,0,0,0,.29-.1.39.39,0,0,0,.12-.31,2.06,2.06,0,0,0-.35-.81L48,23.32v-.79a5.17,5.17,0,0,1,1.79-.94,7.11,7.11,0,0,1,2.16-.33,5.78,5.78,0,0,1,3,.66A2.69,2.69,0,0,1,56.17,24.39Z"/><path class="cls-2" d="M75.58,33.94c-.07,1.81-.32,4.77-4.12,6a14,14,0,0,1-4.19.61,12,12,0,0,1-5-1,8.35,8.35,0,0,1-3.72-3.15,10.11,10.11,0,0,1-1.45-5.57,9.34,9.34,0,0,1,2.82-7.27,10.26,10.26,0,0,1,7.24-2.46,13.19,13.19,0,0,1,4.25.68,9.32,9.32,0,0,1,3.17,1.68,13.1,13.1,0,0,1-.21,2.11,7.17,7.17,0,0,1-.52,1.91H66.25a5,5,0,0,0-.87,1.41A5.19,5.19,0,0,0,65,31a3.74,3.74,0,0,0,.82,2.57,2.29,2.29,0,0,0,1.84.85c.3,0,.46-.1.46-.32v-.33h-.16A1.94,1.94,0,0,1,66.36,33a3.16,3.16,0,0,1-.63-2.11,4,4,0,0,1,1-2.79h8.89C75.58,29.12,75.62,32.48,75.58,33.94Z"/><path class="cls-2" d="M74.9,7.61a.18.18,0,0,1-.18.2l-5.53.07H66.67a.52.52,0,0,0,0,.21c0,.18.1.29.3.35a5.43,5.43,0,0,0,1.35.1h1v10.1a5.5,5.5,0,0,1-1.76,1,8.17,8.17,0,0,1-2.69.39,4.92,4.92,0,0,1-2.69-.71,2.38,2.38,0,0,1-1.25-2.15V7.88h-4.1a5.54,5.54,0,0,1-1-3.23,5.29,5.29,0,0,1,.38-2.08,3.69,3.69,0,0,1,.94-1.37H68.49A6.41,6.41,0,0,1,74.9,7.61Z"/><path class="cls-2" d="M46.42,8.34v.1c0,.06,0,.09,0,.11h6.35a5.47,5.47,0,0,1,.74,2.82,4.74,4.74,0,0,1-.88,3h-7a.36.36,0,0,0-.11.26c0,.16.11.25.35.28s.5,0,.8,0h.83v3.64a5.5,5.5,0,0,1-1.76,1,8,8,0,0,1-2.67.39,5,5,0,0,1-2.71-.71,2.4,2.4,0,0,1-1.25-2.17V2.52q0-1.32,6.48-1.32h9a6.35,6.35,0,0,1,.62,1.7,8.47,8.47,0,0,1,.2,1.69q0,3.29-2.89,3.29H47C46.6,7.88,46.42,8,46.42,8.34Z"/><path class="cls-2" d="M35.62,3.42A9,9,0,0,0,28.77.74a9.22,9.22,0,0,0-6.51,2.34,9.62,9.62,0,0,0-2.84,7.38,10.41,10.41,0,0,0,1.31,5.44,8.15,8.15,0,0,0,3.44,3.23,10.33,10.33,0,0,0,4.69,1.06,9.22,9.22,0,0,0,6.58-2.31q2.7-2.56,2.7-7.42A9.84,9.84,0,0,0,35.62,3.42Zm-6.19,7.65a9.63,9.63,0,0,1-.13,2c-.08.36-.24.54-.47.54a.62.62,0,0,1-.39-.14l0-.35c0-.21,0-.46.07-.76s0-.77,0-1.42V10a18.11,18.11,0,0,0,0-1.84q-.06-.44-.09-.69a.58.58,0,0,1,.39-.15c.23,0,.39.18.47.54a9.68,9.68,0,0,1,.13,2Z"/><path class="cls-2" d="M18.89,13.54a5.71,5.71,0,0,1-2.25,4.62,10.13,10.13,0,0,1-6.57,2,19.62,19.62,0,0,1-3.93-.34,11.9,11.9,0,0,1-3.25-1.18,5.58,5.58,0,0,1-1.08-3.18,3.55,3.55,0,0,1,1.11-2.68,3.79,3.79,0,0,1,2.72-1.07,4.76,4.76,0,0,1,2.65.67A3.83,3.83,0,0,1,9.8,14.5q.48-.09.48-.48a2,2,0,0,0-.26-.89,3,3,0,0,0-.74-.94A5,5,0,0,0,5.82,11a5.52,5.52,0,0,0-2,.36A3.7,3.7,0,0,1,2.23,9.8a4.88,4.88,0,0,1-.59-2.35A5.72,5.72,0,0,1,4.4,2.35,10.49,10.49,0,0,1,10.25.81a14.72,14.72,0,0,1,4.35.55,9.17,9.17,0,0,1,2.89,1.42,6,6,0,0,1,.33,2,5.7,5.7,0,0,1-.28,1.85,3.23,3.23,0,0,1-.79,1.34A6,6,0,0,0,15,7.2a8.32,8.32,0,0,0-2.33-.37,4.68,4.68,0,0,0-1.4.13c-.23.08-.35.22-.35.4a.69.69,0,0,0,0,.25,5.18,5.18,0,0,1,1.29-.13A7.44,7.44,0,0,1,16.81,8.8,5.56,5.56,0,0,1,18.89,13.54Z"/></g></g></svg>